<mxfile host="app.diagrams.net" modified="2023-02-09T10:12:23.839Z" agent="5.0 (Windows NT 10.0; Win64; x64) AppleWebKit/537.36 (KHTML, like Gecko) Chrome/109.0.0.0 Safari/537.36 Edg/109.0.1518.78" etag="nP6_5O7nk3JGFaRCKv67" version="20.8.13" type="github" pages="2">
  <diagram id="0ionDvSSVwY_FxbYfjqk" name="Page-1">
    <mxGraphModel dx="1050" dy="573" grid="1" gridSize="10" guides="1" tooltips="1" connect="1" arrows="1" fold="1" page="1" pageScale="1" pageWidth="850" pageHeight="1100" background="#ffffff" math="0" shadow="0">
      <root>
        <mxCell id="0" />
        <mxCell id="1" parent="0" />
        <mxCell id="0IltiSLGGpPAZs4pymcs-5" value="" style="rounded=0;whiteSpace=wrap;html=1;" parent="1" vertex="1">
          <mxGeometry x="60" y="60" width="390" height="180" as="geometry" />
        </mxCell>
        <mxCell id="0IltiSLGGpPAZs4pymcs-9" style="edgeStyle=orthogonalEdgeStyle;rounded=0;orthogonalLoop=1;jettySize=auto;html=1;entryX=1.004;entryY=0.462;entryDx=0;entryDy=0;entryPerimeter=0;" parent="1" source="0IltiSLGGpPAZs4pymcs-1" target="0IltiSLGGpPAZs4pymcs-5" edge="1">
          <mxGeometry relative="1" as="geometry">
            <Array as="points">
              <mxPoint x="580" y="139" />
              <mxPoint x="580" y="139" />
            </Array>
          </mxGeometry>
        </mxCell>
        <mxCell id="0IltiSLGGpPAZs4pymcs-1" value="Users&lt;br&gt;" style="shape=umlActor;verticalLabelPosition=bottom;verticalAlign=top;html=1;outlineConnect=0;" parent="1" vertex="1">
          <mxGeometry x="610" y="100" width="30" height="60" as="geometry" />
        </mxCell>
        <mxCell id="-QkxVT5CjrJdNT4FkuXy-1" style="edgeStyle=orthogonalEdgeStyle;rounded=0;orthogonalLoop=1;jettySize=auto;html=1;" parent="1" source="0IltiSLGGpPAZs4pymcs-2" target="0IltiSLGGpPAZs4pymcs-4" edge="1">
          <mxGeometry relative="1" as="geometry" />
        </mxCell>
        <mxCell id="0IltiSLGGpPAZs4pymcs-2" value="BNB Api" style="rounded=1;whiteSpace=wrap;html=1;" parent="1" vertex="1">
          <mxGeometry x="80" y="90" width="90" height="40" as="geometry" />
        </mxCell>
        <mxCell id="0IltiSLGGpPAZs4pymcs-3" value="React Native" style="rounded=1;whiteSpace=wrap;html=1;" parent="1" vertex="1">
          <mxGeometry x="335" y="170" width="90" height="40" as="geometry" />
        </mxCell>
        <mxCell id="-QkxVT5CjrJdNT4FkuXy-2" style="edgeStyle=orthogonalEdgeStyle;rounded=0;orthogonalLoop=1;jettySize=auto;html=1;" parent="1" source="0IltiSLGGpPAZs4pymcs-4" target="0IltiSLGGpPAZs4pymcs-3" edge="1">
          <mxGeometry relative="1" as="geometry" />
        </mxCell>
        <mxCell id="0IltiSLGGpPAZs4pymcs-4" value="Axios" style="rounded=1;whiteSpace=wrap;html=1;" parent="1" vertex="1">
          <mxGeometry x="210" y="130" width="90" height="40" as="geometry" />
        </mxCell>
        <mxCell id="0IltiSLGGpPAZs4pymcs-6" value="App" style="text;html=1;strokeColor=none;fillColor=none;align=center;verticalAlign=middle;whiteSpace=wrap;rounded=0;" parent="1" vertex="1">
          <mxGeometry x="240" y="70" width="60" height="30" as="geometry" />
        </mxCell>
        <mxCell id="0IltiSLGGpPAZs4pymcs-10" value="Trade" style="text;html=1;align=center;verticalAlign=middle;resizable=0;points=[];autosize=1;strokeColor=none;fillColor=none;" parent="1" vertex="1">
          <mxGeometry x="530" y="115" width="50" height="30" as="geometry" />
        </mxCell>
      </root>
    </mxGraphModel>
  </diagram>
  <diagram id="OAN4STRptM9j6zuvswiO" name="Page-2">
    <mxGraphModel dx="1050" dy="573" grid="1" gridSize="10" guides="1" tooltips="1" connect="1" arrows="1" fold="1" page="1" pageScale="1" pageWidth="850" pageHeight="1100" math="0" shadow="0">
      <root>
        <mxCell id="0" />
        <mxCell id="1" parent="0" />
        <mxCell id="w7dKVhE2ovnEs2hm9DDd-1" value="log-in" style="text;html=1;align=center;verticalAlign=middle;resizable=0;points=[];autosize=1;strokeColor=none;fillColor=none;" parent="1" vertex="1">
          <mxGeometry x="60" y="50" width="50" height="30" as="geometry" />
        </mxCell>
        <mxCell id="w7dKVhE2ovnEs2hm9DDd-2" value="register&lt;br&gt;" style="text;html=1;align=center;verticalAlign=middle;resizable=0;points=[];autosize=1;strokeColor=none;fillColor=none;" parent="1" vertex="1">
          <mxGeometry x="320" y="55" width="60" height="30" as="geometry" />
        </mxCell>
        <mxCell id="w7dKVhE2ovnEs2hm9DDd-3" value="" style="rounded=1;whiteSpace=wrap;html=1;" parent="1" vertex="1">
          <mxGeometry x="25" y="80" width="195" height="320" as="geometry" />
        </mxCell>
        <mxCell id="w7dKVhE2ovnEs2hm9DDd-5" value="Username" style="rounded=0;whiteSpace=wrap;html=1;" parent="1" vertex="1">
          <mxGeometry x="58.75" y="160" width="120" height="30" as="geometry" />
        </mxCell>
        <mxCell id="w7dKVhE2ovnEs2hm9DDd-6" value="Password" style="rounded=0;whiteSpace=wrap;html=1;" parent="1" vertex="1">
          <mxGeometry x="58.75" y="200" width="120" height="30" as="geometry" />
        </mxCell>
        <mxCell id="w7dKVhE2ovnEs2hm9DDd-8" value="Logo" style="text;html=1;strokeColor=#d79b00;fillColor=#ffe6cc;align=center;verticalAlign=middle;whiteSpace=wrap;rounded=0;fontSize=11;" parent="1" vertex="1">
          <mxGeometry x="88.75" y="110" width="60" height="30" as="geometry" />
        </mxCell>
        <mxCell id="w7dKVhE2ovnEs2hm9DDd-9" value="&lt;font size=&quot;1&quot;&gt;slogan&lt;/font&gt;" style="text;html=1;strokeColor=none;fillColor=none;align=center;verticalAlign=middle;whiteSpace=wrap;rounded=0;fontSize=11;" parent="1" vertex="1">
          <mxGeometry x="50" y="140" width="60" height="30" as="geometry" />
        </mxCell>
        <mxCell id="w7dKVhE2ovnEs2hm9DDd-10" value="Log-in Button" style="rounded=1;whiteSpace=wrap;html=1;fontSize=9;fillColor=#ffe6cc;strokeColor=#d79b00;" parent="1" vertex="1">
          <mxGeometry x="83.75" y="260" width="70" height="30" as="geometry" />
        </mxCell>
        <mxCell id="w7dKVhE2ovnEs2hm9DDd-11" value="Forgot password" style="rounded=1;whiteSpace=wrap;html=1;fontSize=9;fillColor=#dae8fc;strokeColor=#6c8ebf;" parent="1" vertex="1">
          <mxGeometry x="120" y="240" width="80" height="10" as="geometry" />
        </mxCell>
        <mxCell id="w7dKVhE2ovnEs2hm9DDd-12" value="privacy policy" style="rounded=1;whiteSpace=wrap;html=1;fontSize=9;fillColor=#dae8fc;strokeColor=#6c8ebf;" parent="1" vertex="1">
          <mxGeometry x="83.75" y="300" width="80" height="10" as="geometry" />
        </mxCell>
        <mxCell id="w7dKVhE2ovnEs2hm9DDd-13" value="Click to Register" style="rounded=1;whiteSpace=wrap;html=1;fontSize=9;fillColor=#ffe6cc;strokeColor=#d79b00;" parent="1" vertex="1">
          <mxGeometry x="83.75" y="330" width="70" height="30" as="geometry" />
        </mxCell>
        <mxCell id="u0u-3jh7kO6qiOoCZzsO-1" value="" style="rounded=1;whiteSpace=wrap;html=1;" vertex="1" parent="1">
          <mxGeometry x="260" y="85" width="195" height="320" as="geometry" />
        </mxCell>
      </root>
    </mxGraphModel>
  </diagram>
</mxfile>
